# xmcd
#
# Track frame offsets: 
#        150
#        13436
#        30491
#        44408
#
# Disc length: 815 seconds
#
# Revision: 0
# Processed by: cddbd v1.5PL3 Copyright (c) Steve Scherf et al.
# Submitted via: ExactAudioCopy v0.95a4
#
DISCID=2d032d04
DTITLE=mini kyute - Sanctuary
DYEAR=2001
DGENRE=
TTITLE0=Swinging and Swinging
TTITLE1=Miracles
TTITLE2=I found out
TTITLE3=Sanctuary
EXTD=
EXTT0=
EXTT1=
EXTT2=
EXTT3=
PLAYORDER=
